HIERARCHY
ROOT mixamorig:Hips
{
	OFFSET 0.003794 2.116619 0.012124
	CHANNELS 6 Xposition Yposition Zposition Xrotation Yrotation Zrotation
	JOINT mixamorig:Spine
	{
		OFFSET 0.000000 0.185976 -0.012393
		CHANNELS 3 Xrotation Yrotation Zrotation
		JOINT mixamorig:Spine1
		{
			OFFSET 0.000000 0.216972 -0.014459
			CHANNELS 3 Xrotation Yrotation Zrotation
			JOINT mixamorig:Spine2
			{
				OFFSET -0.000000 0.247967 -0.016525
				CHANNELS 3 Xrotation Yrotation Zrotation
				JOINT mixamorig:Neck
				{
					OFFSET 0.000000 0.278964 -0.018590
					CHANNELS 3 Xrotation Yrotation Zrotation
					JOINT mixamorig:Head
					{
						OFFSET 0.000000 0.085875 0.019404
						CHANNELS 3 Xrotation Yrotation Zrotation
						JOINT mixamorig:HeadTop_End
						{
							OFFSET 0.000000 0.570341 0.128875
							CHANNELS 3 Xrotation Yrotation Zrotation
							End Site
							{
								OFFSET 0.000000 0.584720 0.000000
							}
						}
					}
				}
				JOINT mixamorig:LeftShoulder
				{
					OFFSET 0.122345 0.230572 -0.020212
					CHANNELS 3 Xrotation Yrotation Zrotation
					JOINT mixamorig:LeftArm
					{
						OFFSET 0.256200 -0.099962 -0.003243
						CHANNELS 3 Xrotation Yrotation Zrotation
						JOINT mixamorig:LeftForeArm
						{
							OFFSET 0.253946 -0.468758 -0.007560
							CHANNELS 3 Xrotation Yrotation Zrotation
							JOINT mixamorig:LeftHand
							{
								OFFSET 0.209013 -0.357533 0.112017
								CHANNELS 3 Xrotation Yrotation Zrotation
								JOINT mixamorig:LeftHandThumb1
								{
									OFFSET -0.010934 -0.053501 0.080750
									CHANNELS 3 Xrotation Yrotation Zrotation
									JOINT mixamorig:LeftHandThumb2
									{
										OFFSET -0.008747 -0.042801 0.064600
										CHANNELS 3 Xrotation Yrotation Zrotation
										JOINT mixamorig:LeftHandThumb3
										{
											OFFSET -0.015247 -0.032593 0.076310
											CHANNELS 3 Xrotation Yrotation Zrotation
											JOINT mixamorig:LeftHandThumb4
											{
												OFFSET -0.008204 -0.025256 0.065967
												CHANNELS 3 Xrotation Yrotation Zrotation
												End Site
												{
													OFFSET -0.006417 -0.029812 0.064241
												}
											}
										}
									}
								}
								JOINT mixamorig:LeftHandIndex1
								{
									OFFSET 0.085208 -0.190007 0.144884
									CHANNELS 3 Xrotation Yrotation Zrotation
									JOINT mixamorig:LeftHandIndex2
									{
										OFFSET 0.027378 -0.056781 0.031703
										CHANNELS 3 Xrotation Yrotation Zrotation
										JOINT mixamorig:LeftHandIndex3
										{
											OFFSET 0.023631 -0.052692 0.029116
											CHANNELS 3 Xrotation Yrotation Zrotation
											JOINT mixamorig:LeftHandIndex4
											{
												OFFSET 0.023859 -0.039011 0.022637
												CHANNELS 3 Xrotation Yrotation Zrotation
												End Site
												{
													OFFSET 0.023870 -0.039047 0.022565
												}
											}
										}
									}
								}
								JOINT mixamorig:LeftHandMiddle1
								{
									OFFSET 0.098136 -0.204336 0.091128
									CHANNELS 3 Xrotation Yrotation Zrotation
									JOINT mixamorig:LeftHandMiddle2
									{
										OFFSET 0.031736 -0.071332 0.027613
										CHANNELS 3 Xrotation Yrotation Zrotation
										JOINT mixamorig:LeftHandMiddle3
										{
											OFFSET 0.033515 -0.065019 0.025648
											CHANNELS 3 Xrotation Yrotation Zrotation
											JOINT mixamorig:LeftHandMiddle4
											{
												OFFSET 0.027390 -0.056766 0.022198
												CHANNELS 3 Xrotation Yrotation Zrotation
												End Site
												{
													OFFSET 0.027390 -0.056767 0.022195
												}
											}
										}
									}
								}
								JOINT mixamorig:LeftHandRing1
								{
									OFFSET 0.107803 -0.239950 0.032699
									CHANNELS 3 Xrotation Yrotation Zrotation
									JOINT mixamorig:LeftHandRing2
									{
										OFFSET 0.024616 -0.057105 0.018456
										CHANNELS 3 Xrotation Yrotation Zrotation
										JOINT mixamorig:LeftHandRing3
										{
											OFFSET 0.029462 -0.055857 0.018480
											CHANNELS 3 Xrotation Yrotation Zrotation
											JOINT mixamorig:LeftHandRing4
											{
												OFFSET 0.024118 -0.047601 0.015671
												CHANNELS 3 Xrotation Yrotation Zrotation
												End Site
												{
													OFFSET 0.024119 -0.047604 0.015659
												}
											}
										}
									}
								}
								JOINT mixamorig:LeftHandPinky1
								{
									OFFSET 0.097457 -0.241907 -0.015325
									CHANNELS 3 Xrotation Yrotation Zrotation
									JOINT mixamorig:LeftHandPinky2
									{
										OFFSET 0.027982 -0.057113 0.006070
										CHANNELS 3 Xrotation Yrotation Zrotation
										JOINT mixamorig:LeftHandPinky3
										{
											OFFSET 0.022260 -0.049326 0.005257
											CHANNELS 3 Xrotation Yrotation Zrotation
											JOINT mixamorig:LeftHandPinky4
											{
												OFFSET 0.023245 -0.039842 0.004208
												CHANNELS 3 Xrotation Yrotation Zrotation
												End Site
												{
													OFFSET 0.023245 -0.039844 0.004190
												}
											}
										}
									}
								}
							}
						}
					}
				}
				JOINT mixamorig:RightShoulder
				{
					OFFSET -0.122345 0.230572 -0.016969
					CHANNELS 3 Xrotation Yrotation Zrotation
					JOINT mixamorig:RightArm
					{
						OFFSET -0.256200 -0.099962 0.003243
						CHANNELS 3 Xrotation Yrotation Zrotation
						JOINT mixamorig:RightForeArm
						{
							OFFSET -0.253946 -0.468757 -0.015258
							CHANNELS 3 Xrotation Yrotation Zrotation
							JOINT mixamorig:RightHand
							{
								OFFSET -0.209013 -0.357533 0.106029
								CHANNELS 3 Xrotation Yrotation Zrotation
								JOINT mixamorig:RightHandThumb1
								{
									OFFSET 0.010294 -0.054427 0.087395
									CHANNELS 3 Xrotation Yrotation Zrotation
									JOINT mixamorig:RightHandThumb2
									{
										OFFSET 0.008235 -0.043541 0.069916
										CHANNELS 3 Xrotation Yrotation Zrotation
										JOINT mixamorig:RightHandThumb3
										{
											OFFSET 0.009631 -0.032153 0.074220
											CHANNELS 3 Xrotation Yrotation Zrotation
											JOINT mixamorig:RightHandThumb4
											{
												OFFSET 0.011544 -0.018907 0.061893
												CHANNELS 3 Xrotation Yrotation Zrotation
												End Site
												{
													OFFSET 0.008235 -0.027134 0.059308
												}
											}
										}
									}
								}
								JOINT mixamorig:RightHandIndex1
								{
									OFFSET -0.092504 -0.188556 0.148734
									CHANNELS 3 Xrotation Yrotation Zrotation
									JOINT mixamorig:RightHandIndex2
									{
										OFFSET -0.026038 -0.056928 0.033115
										CHANNELS 3 Xrotation Yrotation Zrotation
										JOINT mixamorig:RightHandIndex3
										{
											OFFSET -0.023616 -0.052662 0.030540
											CHANNELS 3 Xrotation Yrotation Zrotation
											JOINT mixamorig:RightHandIndex4
											{
												OFFSET -0.023966 -0.041577 0.025157
												CHANNELS 3 Xrotation Yrotation Zrotation
												End Site
												{
													OFFSET -0.023981 -0.041622 0.025069
												}
											}
										}
									}
								}
								JOINT mixamorig:RightHandMiddle1
								{
									OFFSET -0.096757 -0.203435 0.094901
									CHANNELS 3 Xrotation Yrotation Zrotation
									JOINT mixamorig:RightHandMiddle2
									{
										OFFSET -0.039977 -0.069384 0.026755
										CHANNELS 3 Xrotation Yrotation Zrotation
										JOINT mixamorig:RightHandMiddle3
										{
											OFFSET -0.033823 -0.066915 0.025280
											CHANNELS 3 Xrotation Yrotation Zrotation
											JOINT mixamorig:RightHandMiddle4
											{
												OFFSET -0.027617 -0.058308 0.021823
												CHANNELS 3 Xrotation Yrotation Zrotation
												End Site
												{
													OFFSET -0.027612 -0.058289 0.021878
												}
											}
										}
									}
								}
								JOINT mixamorig:RightHandRing1
								{
									OFFSET -0.117013 -0.247118 0.038708
									CHANNELS 3 Xrotation Yrotation Zrotation
									JOINT mixamorig:RightHandRing2
									{
										OFFSET -0.026450 -0.056799 0.015851
										CHANNELS 3 Xrotation Yrotation Zrotation
										JOINT mixamorig:RightHandRing3
										{
											OFFSET -0.028864 -0.054623 0.015491
											CHANNELS 3 Xrotation Yrotation Zrotation
											JOINT mixamorig:RightHandRing4
											{
												OFFSET -0.022477 -0.044591 0.012567
												CHANNELS 3 Xrotation Yrotation Zrotation
												End Site
												{
													OFFSET -0.022478 -0.044592 0.012563
												}
											}
										}
									}
								}
								JOINT mixamorig:RightHandPinky1
								{
									OFFSET -0.112569 -0.261282 -0.012761
									CHANNELS 3 Xrotation Yrotation Zrotation
									JOINT mixamorig:RightHandPinky2
									{
										OFFSET -0.024503 -0.046754 0.010721
										CHANNELS 3 Xrotation Yrotation Zrotation
										JOINT mixamorig:RightHandPinky3
										{
											OFFSET -0.019547 -0.043312 0.009774
											CHANNELS 3 Xrotation Yrotation Zrotation
											JOINT mixamorig:RightHandPinky4
											{
												OFFSET -0.020726 -0.029332 0.006999
												CHANNELS 3 Xrotation Yrotation Zrotation
												End Site
												{
													OFFSET -0.020728 -0.029349 0.006919
												}
											}
										}
									}
								}
							}
						}
					}
				}
			}
		}
	}
	JOINT mixamorig:LeftUpLeg
	{
		OFFSET 0.212778 -0.103318 0.007440
		CHANNELS 3 Xrotation Yrotation Zrotation
		JOINT mixamorig:LeftLeg
		{
			OFFSET 0.086721 -0.883755 0.028520
			CHANNELS 3 Xrotation Yrotation Zrotation
			JOINT mixamorig:LeftFoot
			{
				OFFSET 0.049862 -0.889022 -0.103409
				CHANNELS 3 Xrotation Yrotation Zrotation
				JOINT mixamorig:LeftToeBase
				{
					OFFSET -0.003295 -0.202434 0.276966
					CHANNELS 3 Xrotation Yrotation Zrotation
					JOINT mixamorig:LeftToe_End
					{
						OFFSET -0.002113 0.008674 0.136138
						CHANNELS 3 Xrotation Yrotation Zrotation
						End Site
						{
							OFFSET -0.002113 0.008673 0.136138
						}
					}
				}
			}
		}
	}
	JOINT mixamorig:RightUpLeg
	{
		OFFSET -0.212778 -0.103318 0.002375
		CHANNELS 3 Xrotation Yrotation Zrotation
		JOINT mixamorig:RightLeg
		{
			OFFSET -0.086721 -0.883755 0.083570
			CHANNELS 3 Xrotation Yrotation Zrotation
			JOINT mixamorig:RightFoot
			{
				OFFSET -0.049844 -0.888938 -0.150140
				CHANNELS 3 Xrotation Yrotation Zrotation
				JOINT mixamorig:RightToeBase
				{
					OFFSET 0.003288 -0.202543 0.285578
					CHANNELS 3 Xrotation Yrotation Zrotation
					JOINT mixamorig:RightToe_End
					{
						OFFSET 0.002108 0.008620 0.140478
						CHANNELS 3 Xrotation Yrotation Zrotation
						End Site
						{
							OFFSET 0.002108 0.008620 0.140478
						}
					}
				}
			}
		}
	}
}
MOTION
Frames: 6
Frame Time: 0.033333
0.009169 1.908463 0.020482 18.559958 -23.096006 2.519534 14.259377 13.069480 -4.372295 0.181061 13.941491 -2.952703 -2.098751 4.385973 -5.171009 3.343968 -4.863132 2.163091 -16.591723 -6.260516 3.897355 0.000002 0.000000 0.000000 -3.392341 1.810898 9.708132 25.982214 5.426469 -19.654399 -21.714990 -11.587198 -3.979399 -8.277108 3.510230 4.816234 15.512376 -9.302030 -3.574918 32.750013 -7.929773 4.159210 78.781041 28.228839 -7.174329 -0.000001 -0.000001 -0.000004 2.078041 -30.217150 -74.542963 -3.684905 -32.658853 -72.437537 -27.278444 -39.166436 -127.805557 -0.000006 0.000000 0.000003 -3.100859 -24.740405 -77.058959 -4.910895 -25.715065 -83.166105 -12.127503 -28.983570 -107.945935 0.000000 0.000001 0.000004 -5.692176 -23.011233 -80.995266 -4.327119 -22.225116 -85.566342 -2.591108 -21.107351 -79.751229 0.000001 0.000001 0.000003 -12.491111 -13.887383 -84.885304 0.668153 -7.492198 -79.741181 -0.264352 -7.693578 -87.469090 -0.000001 0.000000 -0.000005 -26.366438 12.970997 -10.257681 7.464818 2.813772 13.406817 -33.512378 16.874816 6.848028 -7.657563 -2.473956 -9.215430 13.840309 10.909709 5.138709 32.770110 9.239677 -2.389786 90.727056 -32.033290 13.283621 -0.000003 0.000003 0.000004 1.773844 30.359392 71.185823 -5.370013 33.688938 72.287860 -28.389581 39.978545 124.226429 0.000003 -0.000004 0.000001 -7.345441 24.887041 81.768231 -3.920078 22.800425 75.767432 -12.715618 26.927659 105.871491 -0.000001 -0.000001 0.000004 -9.390934 21.009513 81.213750 -4.083046 18.395180 82.850174 -3.064673 17.778714 78.846700 -0.000000 -0.000003 0.000001 -11.487518 19.028089 83.278236 -2.105154 14.155979 75.914349 -4.838033 15.430572 90.365814 -0.000000 -0.000001 0.000007 -92.678734 4.662139 24.722572 106.043529 -1.056299 -2.440643 18.939788 18.393100 -3.347766 5.063454 -0.000003 -0.000004 -0.000002 -0.000001 0.000000 0.239513 0.423523 3.678859 19.143919 4.963125 -7.529200 -16.558665 10.695687 -9.188633 -28.648481 0.000034 0.000010 -0.000001 -0.000000 0.000000 
0.001085 1.982825 0.606986 19.223636 -22.385539 3.566442 13.357618 15.136160 -6.705674 2.774115 14.413835 -3.876003 -2.014158 6.539333 -6.181328 4.176496 -3.355061 1.806281 -17.252569 -10.582756 4.386503 0.000001 -0.000000 0.000000 -3.997316 12.536113 1.333254 34.325263 -7.840707 6.401259 -9.301955 -5.260967 -2.207316 0.027280 7.968470 5.818560 15.512372 -9.302030 -3.574890 32.750016 -7.929793 4.159198 80.962084 28.386635 -7.768328 -0.000001 -0.000000 -0.000006 2.078038 -30.217156 -74.542929 -4.126458 -33.053526 -73.747738 -28.459219 -39.017828 -130.423214 -0.000005 0.000001 0.000000 -3.100852 -24.740410 -77.058925 -5.315654 -25.995382 -84.651787 -12.959724 -29.141603 -110.453844 -0.000001 0.000006 0.000003 -5.692168 -23.011230 -80.995252 -4.739703 -22.505700 -87.338401 -2.896031 -21.365955 -81.164408 -0.000002 -0.000001 0.000002 -12.491130 -13.887398 -84.885304 0.557389 -7.638680 -81.528007 -0.373258 -7.809764 -89.168488 -0.000001 -0.000003 0.000001 -25.768813 18.266163 -8.813892 5.665228 27.462664 -10.775327 -42.555275 20.341463 9.705779 -18.710245 -10.117540 -18.396300 13.890753 11.379793 5.366224 32.770141 9.239653 -2.389784 90.727049 -32.033311 13.283612 0.000002 -0.000010 0.000003 1.789832 30.344987 71.140136 -5.370013 33.688921 72.287867 -28.389586 39.978566 124.226429 0.000004 -0.000001 0.000002 -7.376397 24.907531 81.885137 -3.920082 22.800415 75.767405 -12.715637 26.927686 105.871538 -0.000003 0.000001 0.000001 -9.342787 20.973911 80.970964 -4.083052 18.395165 82.850181 -3.064652 17.778701 78.846693 0.000001 0.000002 -0.000004 -11.395938 18.964792 82.721302 -2.105167 14.155972 75.914336 -4.838044 15.430582 90.365814 0.000001 -0.000001 0.000003 -97.489885 -0.846179 24.143612 84.314840 1.523804 -9.397348 29.409121 15.022356 -2.694126 3.126073 0.000001 0.000000 -0.000002 0.000003 -0.000001 12.122882 1.486590 -0.545487 10.419432 8.702056 -6.608777 21.675107 9.824855 -22.216555 -5.198436 0.000001 -0.000003 -0.000001 0.000000 0.000000 
0.005281 1.986675 1.128951 18.993291 -19.797339 3.426883 9.808988 14.780797 -6.423153 4.952119 12.296296 -4.237344 -1.558717 7.667838 -6.137092 4.434617 -2.602635 1.859536 -17.337858 -10.248771 4.831906 -0.000001 -0.000000 -0.000000 -3.510417 18.441152 -3.059839 34.009803 -11.445892 20.052452 -6.329806 -3.675152 -1.989312 7.383802 5.638577 8.283531 15.512376 -9.302023 -3.574901 32.750023 -7.929777 4.159210 82.781312 28.502383 -8.267954 0.000000 0.000000 -0.000004 2.078072 -30.217167 -74.542929 -4.503704 -33.375542 -74.845657 -29.432549 -38.862356 -132.594271 -0.000003 -0.000001 0.000002 -3.100849 -24.740419 -77.058925 -5.659403 -26.221467 -85.892894 -13.658941 -29.248762 -112.546109 0.000000 0.000001 0.000002 -5.692164 -23.011251 -80.995252 -5.090853 -22.730180 -88.817902 -3.155463 -21.575816 -82.343798 -0.000000 0.000003 -0.000005 -12.491108 -13.887397 -84.885304 0.461674 -7.757999 -83.016182 -0.466565 -7.903983 -90.583663 -0.000002 -0.000001 -0.000006 -24.324134 20.036587 -9.022376 -4.961414 24.319001 -8.817197 -50.353159 22.859984 12.552359 -8.859968 1.355303 -13.692676 13.949797 11.781862 5.559602 32.770121 9.239634 -2.389781 90.727049 -32.033314 13.283587 0.000002 -0.000001 0.000003 1.765138 30.367223 71.210664 -5.370013 33.688942 72.287874 -28.389596 39.978562 124.226429 -0.000000 -0.000001 -0.000003 -7.430979 24.943450 82.090923 -3.920095 22.800425 75.767446 -12.715626 26.927672 105.871511 -0.000003 -0.000000 0.000002 -9.325647 20.961144 80.884432 -4.083047 18.395182 82.850174 -3.064652 17.778704 78.846707 -0.000003 -0.000003 0.000001 -11.339354 18.925001 82.375223 -2.105168 14.155967 75.914349 -4.838043 15.430579 90.365800 -0.000003 0.000001 0.000006 -88.191245 -3.805866 18.861347 64.010224 7.280043 -12.182605 11.481270 12.079463 -8.407772 1.681537 -0.000002 0.000002 -0.000003 -0.000000 0.000001 6.240800 2.276996 -2.121355 35.680017 7.721763 -5.148137 19.921030 10.058946 -28.652903 11.418396 -0.000013 0.000006 -0.000001 0.000000 0.000002 
0.011098 1.932559 1.549281 18.423786 -15.688847 2.350134 6.660564 13.191123 -5.224918 5.755882 8.732686 -3.891746 -1.807414 6.651497 -4.867609 4.447268 -2.093504 2.117545 -17.223352 -7.611753 5.330685 -0.000000 0.000000 -0.000000 -2.739085 18.372299 -2.853560 21.043048 -12.471942 17.141535 -7.808884 -4.466552 -2.087552 9.057770 -5.491924 13.124995 15.512381 -9.302030 -3.574890 32.750016 -7.929772 4.159191 84.584455 28.602812 -8.766427 -0.000003 -0.000001 -0.000000 2.078049 -30.217160 -74.542950 -4.885637 -33.688132 -75.938637 -30.385323 -38.680434 -134.733937 -0.000006 0.000003 0.000003 -3.100856 -24.740410 -77.058939 -6.005501 -26.438551 -87.124875 -14.355449 -29.332766 -114.619822 0.000000 -0.000001 0.000007 -5.692183 -23.011227 -80.995259 -5.444940 -22.943997 -90.285791 -3.417073 -21.778545 -83.513577 -0.000003 0.000002 -0.000001 -12.491123 -13.887404 -84.885290 0.363882 -7.873567 -84.489447 -0.561204 -7.994969 -91.984548 -0.000002 -0.000000 -0.000005 -22.783455 17.710812 -8.862935 -10.195043 9.503808 -1.436965 -55.598723 24.299977 14.633440 3.258508 14.857490 -7.849392 13.998801 12.164698 5.742998 32.770121 9.239672 -2.389795 90.727056 -32.033304 13.283622 0.000000 -0.000002 0.000000 1.755118 30.376238 71.239344 -5.369991 33.688942 72.287826 -28.389618 39.978545 124.226429 0.000001 -0.000003 0.000001 -7.473134 24.971001 82.249568 -3.920080 22.800421 75.767425 -12.715627 26.927671 105.871532 -0.000001 0.000001 -0.000002 -9.301005 20.942719 80.759726 -4.083039 18.395185 82.850167 -3.064672 17.778696 78.846707 -0.000002 -0.000001 0.000002 -11.278396 18.881564 82.000731 -2.105163 14.155978 75.914342 -4.838041 15.430591 90.365827 0.000000 0.000002 0.000006 -70.879161 -5.979334 11.083253 36.531110 13.038906 -9.892565 -5.013510 7.104347 -9.241961 1.864657 0.000003 -0.000003 -0.000004 0.000001 -0.000001 -4.931704 2.904330 -1.109149 68.453037 6.094021 -2.490950 13.306404 9.828370 -33.316857 17.617884 -0.000030 0.000000 -0.000000 -0.000001 0.000001 
0.018244 1.844179 2.000936 17.613714 -9.159973 -0.467801 5.459232 10.865218 -3.104643 5.225367 2.868879 -2.869672 -2.774445 2.814412 -2.031582 4.281268 -1.627626 2.636360 -17.044057 -1.922280 5.922943 -0.000002 -0.000000 -0.000000 -1.498221 12.771096 2.259796 2.676393 -8.636473 2.747698 -13.494967 -7.460844 -2.653053 10.331691 -18.342280 20.756439 15.512384 -9.302033 -3.574881 32.750013 -7.929788 4.159194 86.700413 28.702501 -9.354864 -0.000001 0.000007 0.000002 2.078054 -30.217160 -74.542936 -5.343954 -34.046601 -77.227501 -31.486492 -38.432255 -137.228336 -0.000007 -0.000001 -0.000000 -3.100850 -24.740424 -77.058932 -6.418434 -26.684344 -88.573231 -15.176006 -29.403148 -117.052831 0.000002 0.000000 0.000004 -5.692178 -23.011254 -80.995259 -5.868033 -23.183790 -92.010510 -3.729692 -22.009699 -84.887599 -0.000003 0.000002 -0.000002 -12.491117 -13.887404 -84.885297 0.245484 -8.005806 -86.216501 -0.674931 -8.098613 -93.626696 -0.000003 -0.000001 -0.000003 -20.153165 12.430070 -8.538226 -10.138575 -11.692649 7.345073 -58.571536 25.024408 15.863741 13.110472 34.814693 -1.555582 14.009681 12.557591 5.930959 32.770107 9.239670 -2.389786 90.727056 -32.033304 13.283608 -0.000003 0.000002 -0.000002 1.829716 30.308906 71.025990 -5.370015 33.688942 72.287853 -28.389592 39.978552 124.226429 0.000003 -0.000002 -0.000000 -7.453955 24.958478 82.177448 -3.920102 22.800404 75.767432 -12.715631 26.927686 105.871511 -0.000005 0.000005 0.000004 -9.223133 20.884026 80.364443 -4.083043 18.395192 82.850140 -3.064663 17.778709 78.846700 -0.000001 -0.000001 0.000000 -11.170053 18.802840 81.330389 -2.105155 14.155977 75.914329 -4.838025 15.430579 90.365807 0.000001 0.000000 0.000005 -65.217576 -4.149505 4.515698 34.949002 9.021880 -8.369783 -2.640718 2.342575 3.891293 2.035327 0.000000 -0.000002 -0.000004 0.000000 0.000000 -16.955070 -0.329466 1.851469 100.347200 5.037229 -0.151199 14.566698 6.479494 -30.247807 14.350764 -0.000007 -0.000001 0.000002 -0.000002 0.000001 
0.026353 1.769986 2.547257 17.001862 -1.917188 -3.897578 7.787186 7.721388 -0.254900 4.763594 -3.485306 -1.767197 -3.211956 -1.198026 0.933856 4.076409 -1.283437 3.247574 -16.975201 5.267938 6.280709 -0.000001 0.000000 -0.000000 1.448698 4.576884 9.923224 -8.831838 -6.642461 -3.505449 -21.961628 -11.706273 -4.028066 7.598554 -19.036333 23.153725 15.512381 -9.302029 -3.574882 32.750019 -7.929779 4.159201 88.148215 28.759396 -9.759285 -0.000003 0.000001 -0.000001 2.078052 -30.217177 -74.542943 -5.663857 -34.286617 -78.113479 -32.228422 -38.241225 -138.924272 -0.000002 0.000001 0.000002 -3.100863 -24.740412 -77.058932 -6.705106 -26.846895 -89.565971 -15.738730 -29.433734 -118.717062 0.000004 -0.000001 0.000003 -5.692179 -23.011233 -80.995245 -6.162012 -23.340887 -93.192085 -3.947050 -22.163689 -85.828772 0.000004 -0.000000 -0.000004 -12.491120 -13.887412 -84.885318 0.162255 -8.094098 -87.397325 -0.754386 -8.167579 -94.749361 0.000001 -0.000005 -0.000006 -16.762044 6.288688 -7.978593 -4.985571 -14.952430 9.857623 -52.886684 23.581191 13.542349 14.132200 37.194581 2.483392 13.907226 12.698669 5.999826 32.770121 9.239667 -2.389781 90.727076 -32.033304 13.283624 -0.000001 -0.000004 0.000003 2.089286 30.070331 70.278057 -5.370026 33.688938 72.287853 -28.389623 39.978566 124.226442 0.000005 -0.000003 0.000004 -7.274793 24.839909 81.500727 -3.920085 22.800420 75.767425 -12.715622 26.927659 105.871518 -0.000005 0.000001 -0.000000 -9.050701 20.750893 79.481313 -4.083031 18.395185 82.850140 -3.064659 17.778697 78.846707 -0.000003 0.000001 -0.000000 -11.004650 18.678880 80.295595 -2.105159 14.155967 75.914342 -4.838030 15.430576 90.365793 0.000003 0.000000 0.000005 -63.800893 -3.676601 1.475981 62.433619 9.551120 -10.257894 -14.905471 -4.967304 7.443986 0.530602 -0.006584 0.509364 -0.000003 -0.000000 -0.000000 -22.246251 -6.597445 2.950863 107.197401 3.965700 0.280828 13.791843 6.776493 -19.453849 6.691430 -0.000014 0.000001 -0.000001 -0.000001 0.000002 
